<svg width="105" height="124" viewBox="0 0 105 124" fill="none" xmlns="http://www.w3.org/2000/svg">
<g clip-path="url(#clip0_1218_18093)">
<path d="M0 38.0321C0 37.1169 0.339121 36.3373 1.00041 35.6424C1.66169 34.9645 2.45863 34.6255 3.3573 34.6255H19.296C21.619 34.6255 23.2128 35.0661 24.0437 35.9474C24.8745 36.8288 25.4171 38.1338 25.6545 39.8964L26.5701 45.6588H100.668C101.906 45.6588 102.906 45.9978 103.669 46.6757C104.432 47.3536 104.805 48.2349 104.805 49.3366C104.805 49.5399 104.805 49.8111 104.754 50.1331C104.704 50.4551 104.687 50.7602 104.619 51.0653L100.99 75.0809C100.498 78.3519 99.3794 80.9281 97.6329 82.8263C95.8695 84.7245 93.3261 85.6566 90.0027 85.6566H32.3691L33.0982 90.4191C33.2847 91.8088 33.7764 92.9274 34.5734 93.7579C35.3703 94.5884 36.4046 95.0121 37.6763 95.0121H89.884C90.7657 95.0121 91.5287 95.3341 92.207 95.9951C92.8852 96.656 93.2074 97.4526 93.2074 98.4187C93.2074 99.3847 92.8682 100.198 92.207 100.842C91.5457 101.486 90.7657 101.825 89.884 101.825H36.8963C33.5899 101.825 31.0635 100.893 29.317 99.0118C27.5536 97.1306 26.4345 94.5884 25.9597 91.3512L18.7025 41.5234H3.3573C2.44167 41.5234 1.66169 41.1845 1.00041 40.5065C0.339121 39.8286 0 39.0151 0 38.0829L0 38.0321ZM33.0982 116.502C33.0982 115.147 33.4373 113.892 34.0986 112.774C34.7599 111.655 35.6586 110.774 36.7607 110.113C37.8628 109.469 39.1176 109.13 40.508 109.13C42.5427 109.13 44.2722 109.842 45.7135 111.265C47.1548 112.689 47.8669 114.435 47.8669 116.485C47.8669 118.536 47.1548 120.282 45.7135 121.706C44.2722 123.129 42.5427 123.841 40.508 123.841C39.1176 123.841 37.8628 123.519 36.7607 122.858C35.6586 122.214 34.7768 121.316 34.0986 120.197C33.4373 119.079 33.0982 117.841 33.0982 116.469V116.502ZM75.5561 116.502C75.5561 115.147 75.8952 113.892 76.5565 112.774C77.2178 111.655 78.1165 110.774 79.2356 110.113C80.3547 109.452 81.5925 109.13 82.9659 109.13C85.0176 109.13 86.781 109.842 88.2053 111.265C89.6296 112.689 90.3587 114.435 90.3587 116.485C90.3587 118.536 89.6466 120.282 88.2053 121.706C86.7641 123.129 85.0176 123.841 82.9659 123.841C80.9142 123.841 79.2017 123.129 77.7435 121.706C76.2852 120.282 75.5561 118.536 75.5561 116.485V116.502Z" fill="#A8D480"/>
<path d="M43.1191 21.0158V17.2194C43.1191 16.5415 43.6617 15.9991 44.34 15.9991H81.0837C81.762 15.9991 82.3046 16.5415 82.3046 17.2194V21.0158C82.3046 21.6937 81.762 22.2361 81.0837 22.2361H44.34C43.6617 22.2361 43.1191 21.6937 43.1191 21.0158ZM59.5835 36.998V1.22027C59.5835 0.542344 60.1261 0 60.8043 0H64.6024C65.2807 0 65.8233 0.542344 65.8233 1.22027V36.9811C65.8233 37.659 65.2807 38.2013 64.6024 38.2013H60.8043C60.1261 38.2013 59.5835 37.659 59.5835 36.9811V36.998Z" fill="#6BA63C"/>
<path d="M47.5958 6.16934L50.2918 3.47457C50.7666 3.00001 51.5466 3.00001 52.0214 3.47457L77.998 29.4393C78.4728 29.9138 78.4728 30.6934 77.998 31.168L75.302 33.8628C74.8272 34.3373 74.0473 34.3373 73.5725 33.8628L47.5958 7.89806C47.1211 7.4235 47.1211 6.64389 47.5958 6.16934ZM47.918 29.1003L73.2164 3.81353C73.6912 3.33898 74.4712 3.33898 74.9459 3.81353L77.6419 6.5083C78.1167 6.98285 78.1167 7.76247 77.6419 8.23702L52.3435 33.5238C51.8687 33.9983 51.0888 33.9983 50.614 33.5238L47.918 30.829C47.4432 30.3545 47.4432 29.5749 47.918 29.1003Z" fill="#6BA63C"/>
</g>
<defs>
<clipPath id="clip0_1218_18093">
<rect width="104.788" height="123.841" fill="white"/>
</clipPath>
</defs>
</svg>
