<svg width="92" height="123" viewBox="0 0 92 123" fill="none" xmlns="http://www.w3.org/2000/svg">
<g clip-path="url(#clip0_1218_18098)">
<path d="M26.999 20.241V16.5846C26.999 15.9317 27.5214 15.4093 28.1743 15.4093H63.5472C64.2001 15.4093 64.7225 15.9317 64.7225 16.5846V20.241C64.7225 20.894 64.2001 21.4163 63.5472 21.4163H28.1743C27.5214 21.4163 26.999 20.894 26.999 20.241ZM42.8327 35.634V1.17529C42.8327 0.52235 43.3551 0 44.008 0H47.6645C48.3174 0 48.8398 0.52235 48.8398 1.17529V35.6177C48.8398 36.2706 48.3174 36.793 47.6645 36.793H44.008C43.3551 36.793 42.8327 36.2706 42.8327 35.6177V35.634Z" fill="#6BA63C"/>
<path d="M31.292 5.94163L33.8874 3.34621C34.3445 2.88915 35.0954 2.88915 35.5524 3.34621L60.5599 28.3537C61.017 28.8107 61.017 29.5616 60.5599 30.0187L57.9645 32.6141C57.5074 33.0712 56.7566 33.0712 56.2995 32.6141L31.292 7.60662C30.835 7.14957 30.835 6.39869 31.292 5.94163ZM31.6022 28.0272L55.9567 3.67268C56.4138 3.21562 57.1646 3.21562 57.6217 3.67268L60.2171 6.2681C60.6742 6.72516 60.6742 7.47604 60.2171 7.93309L35.8626 32.2876C35.4055 32.7447 34.6546 32.7447 34.1976 32.2876L31.6022 29.6922C31.1451 29.2352 31.1451 28.4843 31.6022 28.0272Z" fill="#6BA63C"/>
<path d="M0 73.6677V71.7415C0 69.9133 0.538673 68.4442 1.5997 67.3505C2.67704 66.2568 4.12983 65.7019 5.9907 65.7019H85.698C87.5588 65.7019 89.0279 66.2568 90.1053 67.3505C91.1826 68.4442 91.7376 69.9133 91.7376 71.7415V73.6677C91.7376 75.5286 91.199 76.9813 90.1053 78.0587C89.0279 79.136 87.5588 79.6584 85.698 79.6584H5.9907C4.12983 79.6584 2.67704 79.1197 1.5997 78.0587C0.522349 76.9813 0 75.5286 0 73.6677ZM24.9095 122.671C21.906 122.671 19.5228 122.148 17.7599 121.104C15.997 120.059 14.6748 118.704 13.777 117.023C12.8792 115.341 12.2589 113.578 11.8998 111.701L6.49672 85.0288H85.2572L79.8052 111.701C79.4461 113.578 78.8095 115.358 77.928 117.023C77.0466 118.688 75.708 120.059 73.9451 121.104C72.1822 122.148 69.799 122.671 66.7954 122.671H24.9095ZM12.618 67.3995L28.6313 40.3026C29.1536 39.4211 29.8392 38.8988 30.6717 38.7682C31.5042 38.6376 32.2714 38.7682 32.9896 39.16C33.6915 39.5517 34.2139 40.1394 34.5404 40.9066C34.8668 41.6738 34.7689 42.5226 34.2465 43.4694L20.4532 67.3995H12.618ZM27.456 115.929C28.2395 115.798 28.8108 115.488 29.1863 114.982C29.5617 114.476 29.676 113.905 29.578 113.252L26.2481 93.5496C26.1501 92.8967 25.8237 92.3906 25.285 92.0479C24.7463 91.6887 24.1097 91.5745 23.3915 91.6724C22.6406 91.803 22.0529 92.1132 21.6612 92.6192C21.2694 93.1089 21.1388 93.6965 21.2694 94.3495L24.632 114.052C24.7626 114.705 25.0891 115.211 25.5951 115.554C26.1012 115.913 26.7214 116.027 27.456 115.929ZM39.8781 115.88C40.58 115.831 41.1513 115.57 41.6084 115.113C42.0491 114.656 42.2613 114.084 42.2287 113.415L40.9391 93.9577C40.8902 93.2721 40.6127 92.7334 40.1393 92.309C39.6496 91.8846 39.0293 91.7051 38.2784 91.754C37.5439 91.803 36.9562 92.0642 36.5155 92.5212C36.0748 92.9783 35.8789 93.5496 35.9279 94.2189L37.2174 113.676C37.2664 114.362 37.5439 114.901 38.0173 115.325C38.507 115.749 39.1272 115.929 39.8781 115.88ZM51.9411 115.88C52.6757 115.929 53.2796 115.749 53.7694 115.325C54.2591 114.901 54.5202 114.362 54.5692 113.676L55.8588 94.2189C55.9077 93.5333 55.7118 92.9783 55.2711 92.5212C54.8304 92.0642 54.2427 91.803 53.5082 91.754C52.7573 91.7051 52.137 91.8846 51.6473 92.309C51.1576 92.7334 50.8964 93.2721 50.8475 93.9577L49.5579 113.415C49.5253 114.101 49.7375 114.656 50.1782 115.113C50.6189 115.57 51.2066 115.831 51.9411 115.88ZM71.2844 67.3995L57.4911 43.4694C56.9687 42.5226 56.8708 41.6738 57.1973 40.9066C57.5237 40.1394 58.0461 39.5517 58.748 39.16C59.4826 38.8009 60.2661 38.6703 61.0986 38.8009C61.9311 38.9314 62.6003 39.4211 63.09 40.2863L79.1033 67.3832H71.2681L71.2844 67.3995ZM64.2653 115.929C64.9672 116.027 65.5875 115.913 66.1099 115.554C66.6322 115.194 66.9587 114.705 67.0893 114.052L70.4519 94.4311C70.5825 93.7781 70.4519 93.1905 70.0601 92.6681C69.6684 92.1458 69.097 91.8193 68.3298 91.6887C67.5953 91.5908 66.9587 91.7051 66.4363 92.0642C65.8977 92.4233 65.5875 92.913 65.4732 93.5659L62.1433 113.268C62.0453 113.921 62.1759 114.493 62.5514 114.999C62.9268 115.488 63.4981 115.815 64.249 115.945L64.2653 115.929Z" fill="#A8D480"/>
</g>
<defs>
<clipPath id="clip0_1218_18098">
<rect width="91.7213" height="122.671" fill="white"/>
</clipPath>
</defs>
</svg>
